<?xml version="1.0" encoding="utf-8"?>
<!-- Generator: Adobe Illustrator 19.0.0, SVG Export Plug-In . SVG Version: 6.00 Build 0)  -->
<svg version="1.1" id="Capa_1" xmlns="http://www.w3.org/2000/svg" xmlns:xlink="http://www.w3.org/1999/xlink" x="0px" y="0px"
	 viewBox="-97 384.4 69.2 73.5" style="enable-background:new -97 384.4 69.2 73.5;" xml:space="preserve">
<style type="text/css">
	.st0{fill:#075367;}
	.st1{fill:#00CBCC;}
</style>
<g>
	<g>
		<path class="st0" d="M-60.2,401.8c-10.8,0-19.4,8.6-19.4,19.4c0,5.5,2.3,10.5,6,14l0,0l13.4,13.5v-8.1c10.7,0,19.4-8.7,19.4-19.4
			S-49.5,401.8-60.2,401.8z"/>
		<path class="st1" d="M-44.6,432.6c-3.5,4.8-9.2,8-15.7,8v8.1l-13.4-13.5l0,0c-3.7-3.5-6-8.5-6-14c0-10.7,8.7-19.4,19.4-19.4
			c6.1,0,11.5,2.8,15,7.1l13.5-11c-6.7-8.2-17-13.5-28.4-13.5c-20.3,0-36.8,16.5-36.8,36.8S-80.5,458-60.2,458
			c14,0,26.2-7.8,32.4-19.3L-44.6,432.6z"/>
	</g>
</g>
</svg>
